<?xml version="1.0" standalone="no"?>
<!DOCTYPE svg PUBLIC "-//W3C//DTD SVG 20010904//EN"
 "http://www.w3.org/TR/2001/REC-SVG-20010904/DTD/svg10.dtd">
<svg version="1.0" xmlns="http://www.w3.org/2000/svg"
 width="606.000000pt" height="104.000000pt" viewBox="0 0 606.000000 104.000000"
 preserveAspectRatio="xMidYMid meet">

<g transform="translate(0.000000,104.000000) scale(0.100000,-0.100000)"
fill="#000000" stroke="none">
<path d="M474 1029 c-122 -11 -337 -55 -382 -78 -61 -32 -95 -114 -66 -159 17
-26 40 -25 152 3 28 7 52 9 52 5 0 -26 -76 -163 -94 -170 -116 -44 -140 -69
-134 -138 3 -37 3 -37 46 -34 45 3 48 -1 32 -44 -19 -49 -50 -178 -60 -252
-12 -89 -5 -106 56 -134 37 -16 57 -18 110 -13 75 9 79 13 87 105 l5 65 -13
-60 c-10 -46 -13 -53 -15 -30 l-2 30 -8 -30 c-6 -19 -7 -2 -3 45 5 80 40 242
43 200 1 -16 13 9 34 68 18 51 35 94 37 96 2 2 23 7 46 11 l41 6 -13 -38 c-8
-21 -14 -70 -15 -109 0 -65 3 -77 33 -120 24 -36 48 -57 97 -82 61 -32 69 -34
133 -28 38 4 79 12 90 18 12 7 27 11 33 10 6 -1 18 6 25 15 13 17 13 17 -5 3
-18 -13 -19 -13 -11 0 4 8 21 31 37 51 15 20 32 47 36 60 8 21 10 20 16 -16
11 -57 21 -71 74 -102 36 -22 59 -28 102 -27 84 1 130 18 192 74 58 52 68 57
68 39 0 -19 61 -89 92 -105 57 -30 167 2 213 62 l27 35 22 -33 c12 -18 37 -43
56 -56 31 -21 42 -23 95 -17 32 3 67 10 76 15 12 7 21 4 34 -10 34 -37 98 -53
187 -47 138 11 213 65 216 155 1 37 -5 49 -44 93 -24 27 -44 46 -44 41 0 -4 5
-13 12 -20 9 -9 9 -12 0 -12 -7 0 -13 3 -13 8 -7 41 -5 47 20 49 94 8 104 11
122 34 26 33 49 113 49 170 0 56 -30 98 -93 130 -32 17 -50 20 -101 14 -66 -7
-116 -22 -116 -36 0 -5 -6 -8 -12 -6 -7 1 -12 -3 -11 -10 1 -6 -11 -16 -27
-22 -27 -9 -35 -20 -31 -44 1 -5 -3 -6 -8 -3 -12 8 -42 -40 -35 -57 3 -8 1
-18 -5 -22 -7 -4 -9 1 -5 12 5 15 4 16 -5 3 -6 -8 -11 -37 -11 -65 -1 -43 -6
-56 -37 -90 -20 -22 -33 -33 -30 -24 3 9 22 69 43 133 36 113 36 117 19 136
-22 25 -119 55 -143 44 -9 -4 -29 -6 -43 -5 -30 3 -45 -17 -84 -108 -22 -53
-92 -171 -101 -171 -4 0 9 40 40 127 46 127 35 147 -83 150 -96 3 -122 -7
-149 -60 -18 -37 -21 -39 -22 -17 -1 35 -10 47 -55 66 -52 23 -175 22 -233 -1
-39 -16 -132 -105 -132 -126 0 -22 -18 -6 -23 21 -7 34 -52 66 -107 76 -19 4
-45 15 -57 26 -15 14 -36 20 -75 20 -30 1 -59 -1 -64 -4 -5 -3 -22 -8 -37 -12
-22 -5 -27 -4 -21 6 6 10 5 10 -7 1 -8 -6 -49 -14 -93 -18 l-78 -8 7 24 c4 13
14 29 22 36 11 8 14 24 11 52 l-4 41 51 1 c27 0 79 0 115 0 161 -3 200 17 200
99 0 62 -17 75 -115 90 -78 11 -101 11 -231 -1z m326 -55 c0 -2 -7 -4 -15 -4
-8 0 -15 4 -15 10 0 5 7 7 15 4 8 -4 15 -8 15 -10z m-337 -111 c-7 -2 -19 -2
-25 0 -7 3 -2 5 12 5 14 0 19 -2 13 -5z m-208 -28 c-28 -10 -85 -23 -85 -19 0
8 45 23 70 23 14 -1 21 -2 15 -4z m1835 -149 c0 -3 -4 -8 -10 -11 -5 -3 -10
-1 -10 4 0 6 5 11 10 11 6 0 10 -2 10 -4z m-1140 -97 c7 -24 7 -46 2 -55 -7
-12 -10 -5 -14 27 -3 24 -9 53 -14 63 -5 13 -4 17 4 12 6 -4 16 -25 22 -47z
m281 -37 c-17 -22 -31 -43 -31 -48 0 -4 -6 -15 -14 -23 -7 -9 -24 -44 -36 -78
-13 -35 -25 -63 -27 -63 -2 0 -2 20 1 45 5 50 50 136 97 186 41 44 49 29 10
-19z m1156 26 c-3 -8 -6 -5 -6 6 -1 11 2 17 5 13 3 -3 4 -12 1 -19z m-1621
-27 c-9 -59 -43 -130 -81 -173 -39 -43 -44 -33 -21 43 24 78 77 169 98 169 7
0 8 -14 4 -39z m-81 -22 c-13 -24 -25 -39 -25 -32 0 15 41 85 46 80 3 -2 -7
-24 -21 -48z m919 -63 c-21 -53 -39 -94 -42 -92 -5 5 43 147 59 179 6 10 13
16 16 14 2 -3 -12 -48 -33 -101z m-622 62 c-7 -7 -12 -8 -12 -2 0 14 12 26 19
19 2 -3 -1 -11 -7 -17z m375 -12 c1 -1 0 -12 -4 -24 -5 -20 -10 -24 -29 -21
-4 0 -10 -3 -13 -8 -8 -10 -77 -63 -113 -86 -36 -23 -36 -10 3 74 31 66 32 67
64 62 19 -3 35 -1 40 6 5 9 39 7 52 -3z m-906 -19 c-10 -9 -11 -8 -5 6 3 10 9
15 12 12 3 -3 0 -11 -7 -18z m495 -38 c-9 -19 -15 -29 -16 -22 0 15 22 64 27
60 2 -2 -3 -19 -11 -38z m-305 -26 c-8 -15 -10 -15 -11 -2 0 17 10 32 18 25 2
-3 -1 -13 -7 -23z m1453 -105 c21 -48 4 -59 -34 -23 -27 26 -28 29 -13 52 18
27 26 23 47 -29z m-392 -30 c-8 -8 -9 -4 -5 13 4 13 8 18 11 10 2 -7 -1 -18
-6 -23z m-443 -58 c-13 -11 -33 -25 -44 -31 -11 -5 -2 6 20 25 22 19 41 33 44
31 2 -3 -7 -14 -20 -25z m1066 -24 c-10 -14 -21 -26 -26 -26 -5 0 0 13 12 30
27 36 38 33 14 -4z m-355 -41 c13 -14 21 -25 18 -25 -2 0 -15 11 -28 25 -13
14 -21 25 -18 25 2 0 15 -11 28 -25z m-1899 -87 c11 -21 11 -22 -4 -9 -10 7
-17 17 -17 22 0 15 9 10 21 -13z"/>
<path d="M2995 1029 c-221 -34 -479 -281 -540 -519 -25 -95 -18 -229 15 -293
38 -75 138 -163 207 -183 105 -30 244 0 315 69 24 23 32 32 18 20 -14 -13 -32
-23 -40 -23 -7 0 -1 10 13 23 15 12 27 29 27 36 0 8 3 11 6 8 4 -4 20 14 36
38 l30 45 40 -34 c65 -56 104 -71 184 -70 50 0 80 5 98 18 15 9 30 14 35 12 5
-3 15 2 22 11 12 14 12 16 -1 8 -8 -5 2 13 22 40 20 28 43 66 51 85 l15 35 -1
-36 c0 -41 26 -89 73 -134 28 -27 37 -30 90 -28 69 2 123 24 151 64 11 16 23
29 27 29 4 0 16 -13 27 -29 10 -17 37 -39 58 -51 32 -19 47 -21 97 -15 36 4
70 15 85 27 25 20 26 20 63 0 63 -32 89 -35 106 -10 8 12 13 25 10 30 -6 10
10 11 19 1 4 -3 2 -12 -4 -20 -9 -10 -6 -13 13 -13 21 0 26 8 42 67 10 38 18
78 18 90 0 13 4 21 8 18 4 -3 8 1 7 8 -1 34 5 47 21 47 13 0 14 2 4 9 -10 6
-8 15 12 38 14 17 26 37 26 44 0 12 2 12 9 1 5 -8 6 -33 3 -57 -4 -39 -1 -48
26 -75 32 -31 52 -35 127 -22 37 7 40 10 48 52 5 25 9 53 9 63 -1 9 3 17 9 17
12 0 12 37 0 42 -5 2 -3 17 5 33 13 27 14 28 9 4 -8 -43 13 -95 60 -147 78
-87 90 -168 13 -95 l-27 26 -20 -24 c-18 -22 -20 -22 -26 -7 -11 28 -31 21
-49 -16 -34 -72 -8 -132 69 -162 61 -23 186 -15 250 16 55 26 99 80 90 109
-10 32 10 32 28 1 10 -16 31 -38 47 -50 39 -28 108 -51 115 -39 4 5 19 9 35 9
38 0 139 46 168 77 l22 24 0 -39 c0 -85 78 -129 212 -119 138 11 213 65 216
155 1 37 -5 49 -44 93 -24 27 -44 46 -44 41 0 -4 5 -13 12 -20 9 -9 9 -12 0
-12 -7 0 -13 3 -13 8 -7 41 -5 47 20 49 94 8 104 11 122 34 26 33 49 113 49
170 0 56 -30 98 -93 130 -32 17 -50 20 -101 14 -66 -7 -116 -22 -116 -36 0 -5
-6 -8 -12 -7 -7 2 -12 -2 -11 -9 1 -6 -11 -16 -27 -22 -28 -9 -35 -21 -30 -46
1 -5 -2 -7 -6 -3 -4 4 -13 3 -19 -2 -9 -7 -20 1 -39 31 -25 37 -31 40 -57 35
-21 -4 -28 -2 -23 5 10 16 -143 1 -179 -18 -16 -8 -51 -36 -78 -62 l-49 -47 0
42 c0 51 -32 94 -93 125 -32 17 -50 20 -101 14 -66 -7 -116 -22 -116 -36 0 -5
-8 -9 -17 -9 -9 0 -14 -3 -10 -6 3 -4 -8 -17 -26 -29 -18 -12 -31 -27 -29 -34
1 -7 -2 -10 -8 -6 -5 3 -10 0 -10 -7 0 -7 -12 2 -26 20 -39 49 -75 64 -137 56
-28 -3 -64 -15 -80 -25 l-27 -20 -45 26 c-43 26 -69 30 -150 23 -34 -3 -42 -8
-62 -43 -12 -22 -39 -88 -58 -147 -20 -58 -42 -112 -50 -118 -7 -6 5 43 28
115 39 122 40 125 22 145 -22 25 -119 55 -143 45 -9 -4 -30 -8 -47 -9 -27 -1
-34 -9 -75 -92 -84 -168 -127 -217 -75 -84 36 90 42 142 20 160 -21 17 -179
23 -207 9 -17 -9 -68 -107 -68 -132 -1 -7 -7 3 -15 21 -17 38 -29 44 -15 6 6
-14 10 -37 9 -52 -1 -25 -2 -24 -11 8 -5 19 -12 47 -15 63 -6 30 -21 41 -73
52 -19 4 -46 16 -61 27 -27 20 -133 32 -121 14 3 -5 -2 -7 -10 -4 -8 4 -34 -2
-58 -13 -39 -18 -41 -18 -29 -2 7 10 1 7 -14 -6 -15 -14 -27 -31 -27 -38 0 -8
-4 -12 -9 -9 -22 14 -111 -165 -111 -224 0 -17 -5 -30 -12 -30 -6 0 -52 -39
-102 -88 -50 -48 -110 -96 -134 -106 -40 -18 -43 -18 -62 -1 -31 28 -43 81
-35 149 4 34 7 73 6 88 -3 70 120 266 214 340 l27 21 -17 -33 c-21 -40 -11
-64 41 -98 41 -27 104 -41 104 -24 0 7 11 9 29 6 27 -6 30 -2 59 58 17 34 45
87 62 117 36 65 37 87 6 130 -58 78 -126 100 -251 80z m191 -286 c-8 -15 -15
-22 -16 -15 0 17 20 55 27 49 2 -3 -2 -18 -11 -34z m-401 -117 c-19 -30 -40
-68 -46 -83 -19 -52 -49 -173 -50 -205 -1 -31 -1 -32 -8 -8 -9 29 1 120 20
177 15 47 112 200 116 186 2 -6 -12 -36 -32 -67z m245 58 c0 -2 -7 -4 -15 -4
-8 0 -15 4 -15 10 0 5 7 7 15 4 8 -4 15 -8 15 -10z m2660 2 c0 -3 -4 -8 -10
-11 -5 -3 -10 -1 -10 4 0 6 5 11 10 11 6 0 10 -2 10 -4z m-1415 -77 c-38 -93
-64 -149 -70 -149 -4 0 14 53 39 113 9 20 23 53 31 74 8 20 18 34 21 31 3 -3
-7 -34 -21 -69z m1032 39 c-17 -18 -44 -46 -60 -63 l-29 -30 17 30 c19 32 82
95 95 95 5 0 -6 -15 -23 -32z m-2156 -57 c-12 -16 -28 -46 -37 -67 -8 -20 -17
-34 -20 -31 -7 7 21 72 47 108 12 17 23 28 26 25 3 -3 -4 -18 -16 -35z m1612
4 c-3 -9 -8 -14 -10 -11 -3 3 -2 9 2 15 9 16 15 13 8 -4z m-1354 -67 c-6 -24
-18 -56 -26 -73 -20 -39 -76 -114 -85 -115 -22 -1 27 139 73 211 26 41 34 48
41 35 5 -9 4 -33 -3 -58z m2578 50 c-3 -8 -6 -5 -6 6 -1 11 2 17 5 13 3 -3 4
-12 1 -19z m-2657 -47 c-28 -56 -35 -52 -8 4 12 24 23 43 26 41 2 -2 -6 -22
-18 -45z m1673 34 c-3 -9 -8 -14 -10 -11 -3 3 -2 9 2 15 9 16 15 13 8 -4z
m-1169 -99 c-21 -53 -39 -94 -42 -92 -5 5 43 147 59 179 6 10 13 16 16 14 2
-3 -12 -48 -33 -101z m1747 35 c-11 -20 -60 -55 -67 -48 -4 4 65 67 74 67 1 0
-2 -8 -7 -19z m-1048 -62 c-6 -6 -7 3 -4 23 4 28 6 29 9 9 2 -13 0 -27 -5 -32z
m1032 5 c-63 -52 -165 -117 -172 -111 -3 4 -2 24 3 44 9 35 12 38 66 49 31 6
71 20 89 32 43 27 53 17 14 -14z m-2283 -16 c-8 -8 -9 -4 -5 13 4 13 8 18 11
10 2 -7 -1 -18 -6 -23z m1830 7 c11 -5 12 -17 4 -64 l-9 -58 -44 49 c-23 27
-43 45 -43 40 0 -4 5 -13 12 -20 9 -9 9 -12 0 -12 -13 0 -13 1 -17 37 -2 19 2
21 25 16 15 -3 31 0 34 6 8 12 17 14 38 6z m549 -59 c13 8 50 -79 39 -90 -12
-12 -74 44 -77 69 -1 11 0 14 3 7 7 -15 24 -6 20 11 -1 7 -1 9 1 4 3 -4 9 -5
14 -1z m-69 -58 c-7 -7 -12 -8 -12 -2 0 14 12 26 19 19 2 -3 -1 -11 -7 -17z
m28 -2 c0 -2 -8 -10 -17 -17 -16 -13 -17 -12 -4 4 13 16 21 21 21 13z m-535
-100 c-10 -14 -21 -26 -26 -26 -5 0 0 13 12 30 27 36 38 33 14 -4z m840 0
c-10 -14 -21 -26 -26 -26 -5 0 0 13 12 30 27 36 38 33 14 -4z m-1192 -41 c23
-32 17 -32 -13 0 -13 14 -19 25 -14 25 5 0 17 -12 27 -25z m837 0 c13 -14 21
-25 18 -25 -2 0 -15 11 -28 25 -13 14 -21 25 -18 25 2 0 15 -11 28 -25z
m-2863 -131 c-3 -3 -12 -4 -19 -1 -8 3 -5 6 6 6 11 1 17 -2 13 -5z m70 -10
c-3 -3 -12 -4 -19 -1 -8 3 -5 6 6 6 11 1 17 -2 13 -5z"/>
<path d="M306 335 c-3 -9 -6 -22 -5 -28 0 -7 5 -1 10 12 5 13 8 26 5 28 -2 2
-6 -3 -10 -12z"/>
<path d="M271 294 c0 -11 3 -14 6 -6 3 7 2 16 -1 19 -3 4 -6 -2 -5 -13z"/>
<path d="M291 274 c0 -11 3 -14 6 -6 3 7 2 16 -1 19 -3 4 -6 -2 -5 -13z"/>
<path d="M258 247 c-3 -19 -2 -25 4 -19 6 6 8 18 6 28 -3 14 -5 12 -10 -9z"/>
<path d="M282 210 c0 -14 2 -19 5 -12 2 6 2 18 0 25 -3 6 -5 1 -5 -13z"/>
<path d="M251 174 c0 -11 3 -14 6 -6 3 7 2 16 -1 19 -3 4 -6 -2 -5 -13z"/>
</g>
</svg>
